<?xml version="1.0" encoding="UTF-8" standalone="no"?>
<svg
   xmlns:dc="http://purl.org/dc/elements/1.1/"
   xmlns:cc="http://creativecommons.org/ns#"
   xmlns:rdf="http://www.w3.org/1999/02/22-rdf-syntax-ns#"
   xmlns:svg="http://www.w3.org/2000/svg"
   xmlns="http://www.w3.org/2000/svg"
   width="660.66547pt"
   height="646.42725pt"
   viewBox="0 0 660.66547 646.42725"
   version="1.1"
   id="svg4136">
  <metadata
     id="metadata4249">
    <rdf:RDF>
      <cc:Work
         rdf:about="">
        <dc:format>image/svg+xml</dc:format>
        <dc:type
           rdf:resource="http://purl.org/dc/dcmitype/StillImage" />
        <dc:title></dc:title>
      </cc:Work>
    </rdf:RDF>
  </metadata>
  <defs
     id="defs4247" />
  <g
     id="g4262"
     transform="translate(-259.81044,-18.786134)">
    <path
       id="path4139"
       d="m 511.22656,595.82031 c -14.2265,-3.73939 19.00609,-18.13199 -9.00478,-18.07496 -29.38511,-8.13453 -47.05949,-18.07487 -47.69932,-18.57323 -8.69918,-3.93656 0.68575,-0.81104 -14.61127,-8.98791 -22.97935,-14.41774 -4.04176,-2.98126 -19.19635,-13.66464 4.94581,2.651 -6.14206,-4.65825 5.1836,2.42576 14.3229,8.8236 -9.42189,-6.56334 2.95312,1.12891 -12.5557,-8.33215 -42.2136,-34.74806 -12.84375,-11.27735 -9.82417,-5.77463 45.65625,29.01913 17.6211,11.29688 23.81114,13.73278 -11.72991,-7.39103 6.67187,3.32422 -11.48165,-6.10082 -44.472,-31.61641 -15.92725,-10.64405 19.84035,13.06012 -2.7772,-1.79998 6.04053,3.54639 -16.42551,-10.81781 9.2546,5.6272 -10.32812,-7.7539 9.68599,6.84576 -21.81216,-17.49888 -9.42377,-8.17955 -16.44132,-11.42498 -31.37722,-30.43294 -32.77152,-32.99233 -11.29775,-12.9533 -32.5872,-44.18256 -38.86827,-69.03059 -14.06028,-44.13005 -17.53743,-91.4955 -7.54579,-136.88738 -1.17594,10.81491 11.61058,-45.98039 14.53711,-47.56494 -1.91639,7.32143 -5.57433,20.95703 1.85805,-2.13461 11.10034,-31.48558 30.84456,-62.86064 38.55235,-73.59165 -18.83397,24.95157 14.30153,-22.33704 28.98871,-33.63292 13.53993,-12.46044 11.46418,-9.83346 17.5047,-15.04072 4.82755,-5.73067 55.57654,-34.035981 48.06397,-28.284669 -13.21315,7.5045 3.91061,-1.839982 -5.0503,3.596191 15.0129,-7.81723 -11.99645,6.84114 9.17432,-4.053711 12.76559,-6.358089 -6.78554,3.651916 9.80078,-4.289062 -12.1109,5.94147 14.83386,-6.397548 1.46094,-0.132813 19.3038,-8.113626 3.03937,-1.076304 24.58203,-8.941894 18.42119,-4.989372 18.4447,-4.558668 16.80266,-3.938479 6.01785,-2.331116 59.62531,-11.542975 86.70124,-7.979002 -8.0079,-0.06287 3.52834,0.207743 -5.83593,0.312515 4.35179,0.374281 -11.84101,0.338971 -0.15625,0.535146 -18.73869,0.08761 3.13966,0.127823 -13.27735,0.496089 12.18902,-0.187447 -8.91833,0.687479 5.01944,0.285148 -14.9071,1.120272 25.80569,-0.338436 42.96875,3.597652 -36.41387,-3.806134 12.65873,1.418602 25.63477,5.344236 24.71681,6.317698 29.19916,8.386073 33.96293,9.249514 -0.90889,-0.539116 -14.43348,-5.865041 -13.98828,-6.128904 2.28043,0.395929 -8.90876,-2.778431 3.17578,0.453124 -19.25025,-6.248274 9.71547,2.730507 -0.0312,-0.51172 -14.08837,-5.066978 -41.38355,-10.456447 -28.91797,-8.339841 -4.36283,-0.15405 -5.08431,-3.313266 -25.38079,-6.148865 6.83651,0.04751 -5.27856,-1.103649 1.87399,-0.70806 -17.15967,-2.235912 -5.80259,-1.50434 7.43649,-0.275878 25.35608,3.899897 -9.09402,-1.994978 7.625,0.570325 -18.72908,-3.298421 -14.75431,-3.129316 -23.5625,-4.34375 0.61686,-0.700229 -16.64665,-1.646836 -8.15234,-1.42578 -16.77992,-0.814814 3.23244,-0.550027 -15.87012,-1.057129 15.67447,0.03915 -20.21117,-0.538658 5.27588,-0.468761 -12.0752,-0.538007 -16.78735,-0.771352 4.21533,-0.696779 -29.16632,-0.699941 24.40841,0.03102 34.82739,2.769288 43.92314,5.733894 86.61619,22.409075 121.6648,49.695556 -13.42174,-8.909246 8.74912,6.678373 0.96972,1.437983 -2.91694,-1.87346 15.36282,11.47156 3.09668,2.84717 21.71474,16.44166 11.65129,9.47186 22.88672,18.80469 -9.7574,-8.57148 18.77884,17.66649 8.01953,8.26953 4.53653,4.19588 4.60274,3.31673 6.50409,6.11669 -4.9143,-2.83197 12.6715,12.96244 2.30841,3.35982 7.90122,8.35711 10.62975,11.72056 3.02332,4.29773 8.51306,9.22379 8.59702,9.6656 4.91028,5.76868 -1.98475,-1.85356 5.4707,6.08036 -0.54688,0.17187 0.23881,0.54855 6.82455,8.50567 3.63281,4.92188 -10.08136,-10.71475 6.12967,7.75146 -2.25781,-1.58203 -1.96191,-2.31919 10.05953,11.78367 5.81641,7.17187 -1.37808,-1.37246 4.80005,6.75354 3.71484,5.01172 1.87837,2.87034 -4.98769,-5.63142 -10.83206,-11.3398 2.11574,2.71987 2.76106,4.55742 -0.60548,0.38675 11.11907,13.31176 -1.45766,-1.41641 8.95313,11.09765 -12.09983,-14.10612 9.76667,12.10987 5.4218,7.48195 7.13248,9.41494 14.50166,21.36522 26.80867,43.61571 -7.2696,-12.46662 -5.99239,-6.88598 -2.93702,-2.63818 9.56391,22.32452 -0.86371,-1.81946 10.53406,27.81173 -2.00332,-1.40888 10.75863,32.32232 15.42126,54.1604 5.08461,27.75446 -6.00588,-20.83265 -0.81124,1.82629 -2.76999,-9.58516 5.52231,31.72433 1.32817,15.1914 2.97927,18.37369 2.31837,25.31827 2.39453,26.50391 -0.5023,-3.6047 0.30598,14.36457 -1.0898,-1.02735 1.14409,35.28536 -1.5932,51.6304 -8.08911,85.49079 -8.60691,37.71007 -25.9646,72.87132 -45.57886,105.92328 5.39304,-9.07482 -5.48234,8.11503 1.39453,-3.10547 -10.00842,16.71803 5.92089,-10.04128 -4.79297,7.45703 9.62477,-14.87095 -14.10238,21.62802 -6.27734,8.66406 -7.08878,9.37929 -11.17848,17.11179 -14.19922,18.28125 -17.55313,21.74225 -59.45516,59.61858 -24.22952,28.3125 7.56416,-7.26464 -11.35541,12.30542 4.2102,-3.05572 10.95767,-11.3754 28.10804,-25.58587 26.06849,-25.06262 13.68108,-17.67203 -5.89642,8.89192 6.15393,-6.56916 -13.1469,18.17393 13.56112,-18.66655 -0.28907,0.91406 -4.90585,6.72625 4.64322,-5.71818 -3.91015,5.4961 8.39996,-11.24386 22.32978,-31.15404 14.18359,-17.66797 12.3161,-19.97484 -5.21146,9.50609 6.62109,-9.39063 -3.09933,5.93545 13.91986,-23.10029 9.51563,-15.50781 -18.72156,38.41918 37.52707,-72.32117 16.29669,-28.48779 -4.67281,12.1094 8.10566,-18.47321 -0.64825,3.46826 5.504,-12.07731 10.02849,-25.03383 10.81799,-26.90429 6.82878,-21.84756 -3.74203,13.61761 3.15857,-8.45899 -1.28259,7.3265 -11.30407,34.85732 -9.78125,29.76172 0.88517,-0.43697 -15.25327,33.57418 -2.37078,8.08805 7.93001,-14.45631 11.1355,-26.57577 10.51532,-23.67012 5.19358,-14.28431 9.80218,-31.68455 2.50055,-6.836 -4.12675,14.86498 9.92297,-32.4197 0.98675,-2.02533 -1.09333,8.03223 13.40461,-50.57972 4.62269,-14.69183 -1.78492,6.82261 3.56327,-11.73852 2.83343,-9.69996 3.46072,-12.07051 7.4552,-42.98673 3.05271,-12.0047 3.85544,-16.1471 6.62277,-56.76804 3.41016,-18.82812 1.96767,-15.21025 -0.56135,6.48522 1.42578,-8.53125 -1.4278,15.13453 2.11989,-20.52715 0.4961,-1.45313 1.25916,-14.99659 0.78115,-4.1254 2.07027,-23.19921 -0.52339,21.843 0.84027,-3.47896 0.62302,-12.37549 0.35484,6.35237 0.28181,14.96207 0.53315,2.8247 -0.56784,29.098 0.78703,-13.33042 0.69532,3.52735 0.006,-9.87183 0.59493,10.57491 0.3358,-10.16016 0.47677,24.41467 0.2483,-10.51836 0.5117,9.66797 0.17778,-2.75715 -0.22514,-16.87628 0.3554,-6.72656 0.22134,0.0224 0.29039,-9.54854 0.33194,-6.07031 -1.43689,-24.64828 0.71139,8.69822 0.11327,-5.12745 0.74453,12.20337 -0.12855,-9.56579 0.38667,-1.7788 1.10157,14.74202 0.002,-9.49627 0.75774,4.76171 -0.0387,-6.71654 -0.70104,-16.58033 0.28328,-0.0409 -0.31518,-11.93027 0.58059,-0.36965 0.35732,-8.63489 0.81692,11.89426 -0.391,-10.87266 0.82811,9.76953 0.88825,-7.7911 -3.93576,-45.39718 -0.48047,-17.52343 1.78622,20.63902 -2.15825,-25.94079 0.47015,1.74414 0.31772,1.02822 1.17634,4.52579 0.63919,1.05273 -3.05415,-17.91281 -2.31239,-25.56789 -0.11719,-3.55859 1.22176,14.21088 -1.14868,-15.0962 0.43554,3.23877 -2.44783,-23.47128 1.53762,9.93932 -0.98547,-12.03644 -2.34783,-19.82392 2.81897,19.73329 0.92493,3.46954 0.11329,-0.48578 -3.30563,-25.89149 -0.2461,-4.97656 -0.61872,-7.25873 1.91104,12.83093 -0.60547,-8.08594 2.28935,16.0224 -1.61225,-13.5808 -0.48434,-6.51168 0.02,-1.35569 -0.12206,-1.63184 -1.31246,-10.08213 3.06117,9.79541 -12.94787,-52.97691 -2.43899,-13.95898 3.15703,11.68792 3.85685,21.61247 0.69288,2.93945 4.88596,20.7141 -2.12074,-10.09136 2.34765,8.32422 -3.37847,-16.03322 3.47683,14.18881 -1.11426,-6.58105 -2.4506,-10.59231 3.74487,13.20631 -2.25683,-11.12207 4.9417,20.93492 -1.91205,-9.45334 3.76562,14.41406 -1.82789,-18.64059 -23.81391,-77.17064 -21.32574,-68.04077 8.48116,19.39555 7.72268,16.87282 5.0849,10.44952 2.20499,4.03182 11.28909,29.19823 3.20813,7.21381 -12.23964,-31.07958 8.04396,20.45725 -0.0767,-1.47022 7.83458,20.40351 -8.43711,-23.11192 2.34756,4.36333 -4.83369,-12.44497 2.13639,3.70094 -4.57422,-12.52734 4.59267,14.69971 9.16123,22.10564 9.91405,24.08203 1.09163,-4.79873 -30.02991,-70.0458 -29.05958,-64.354 10.77471,16.87349 -11.02784,-20.78431 4.78614,6.33056 10.35554,17.10283 -13.83273,-28.05919 -24.08818,-41.3506 -10.70941,-18.54473 -42.44342,-48.68611 -47.61299,-52.56688 10.01157,6.16394 -16.11735,-15.79553 3.33789,-0.8208 -4.08204,-4.05779 17.30118,13.91064 -2.73828,-3.1875 -10.06849,-9.430612 -42.75933,-30.152185 -42.11169,-29.524105 23.34893,13.457434 -4.59744,-3.06474 1.56091,0.08661 7.74153,4.22386 -22.3591,-12.144906 -8.60547,-5.585937 -12.59105,-6.941244 11.14356,5.307979 -8.05469,-5.03125 32.25824,14.930504 -8.24613,-3.69412 -0.92456,-1.764183 12.55792,6.443582 40.59344,22.263571 13.60042,6.237747 0.76902,-0.511027 -15.51364,-9.025484 -14.73486,-8.730957 -6.10374,-3.152865 8.75119,4.124608 -6.56054,-3.508789 -3.80445,-2.977844 -30.84679,-12.840488 -26.07911,-11.327641 19.60667,7.256363 -11.83974,-4.747794 10.60938,3.445313 -9.36148,-4.545281 -39.50028,-13.678663 -16.57422,-6.636719 -28.28054,-9.77578 -56.98648,-20.146775 -87.39453,-19.316407 -2.57623,-0.538347 15.63822,0.924575 -6.26172,-0.78125 20.63746,-0.189686 -40.41974,-0.348468 -3.17969,-0.40234 -4.82171,-0.05662 -5.59836,-0.37528 -1.14015,-0.256355 21.23271,0.538394 -0.26426,-0.21091 13.15578,0.07275 -14.45712,-0.827828 13.6115,0.112493 -3.80484,-0.72617 -20.17999,-3.94975 -77.26673,2.867125 -77.83969,3.554297 7.88327,-1.78379 -18.42041,3.451906 4.15234,-1.328125 -17.48279,3.630221 -24.23298,5.381864 -9.59375,1.546875 -10.6059,2.784827 0.82729,-1.032322 -24.23892,5.126574 -17.09965,4.783747 -46.52277,17.147643 -15.46811,4.747436 21.47146,-7.463139 -5.30813,1.623222 1.24619,-1.006832 -6.67329,1.977871 4.57976,-1.986249 -11.03514,3.707027 8.44885,-3.266205 -2.20299,0.503314 11.32812,-4.601563 -4.29003,1.141924 -18.26236,6.309548 -12.57477,4.000977 -21.03499,8.908038 1.85182,-0.943799 3.30911,-1.649412 -4.24202,1.300003 -8.00543,3.392742 2.09765,-1.175781 -7.11401,2.416731 24.39732,-9.332209 -2.21323,0.310134 -21.48423,6.085672 -70.28131,35.442573 -73.51138,39.017991 6.33454,-4.797413 -29.62825,22.445074 -4.93554,3.964355 12.86858,-10.744372 -8.60388,5.787857 7.13671,-6.339359 -19.28524,14.90396 3.46943,-3.909661 -18.1289,13.449219 20.02051,-17.625565 -35.04689,30.748929 -6.70313,4.957031 -3.19941,2.730798 0.86878,-0.96309 -7.95703,6.949219 5.62494,-5.475913 -5.80084,5.174399 7.6211,-7.378906 -34.16989,30.369585 29.16359,-25.855992 0.59761,-1.429684 15.4464,-13.492772 -20.6699,17.906409 2.64453,-2.992188 -11.11419,9.74505 -35.15681,33.152957 -11.56164,9.209107 28.81276,-26.483124 -25.98939,20.74186 -34.03878,35.55287 -10.66968,11.30549 5.3767,-8.06775 -0.93811,-1.12361 15.23973,-18.93004 -9.93849,11.57055 1.11279,-2.45068 -12.91285,13.29765 -26.82925,38.39464 -17.07031,21.26953 -8.61679,13.10444 -0.36942,-0.97652 -9.09766,13.25 19.48421,-32.96596 -21.93481,28.25769 -25.04467,44.73773 -9.1144,24.1855 -4.67611,7.59331 -2.75754,1.99666 -5.16324,6.24335 -20.07869,73.12781 -21.47317,68.77098 -1.81104,-4.06589 -5.6301,64.84219 -5.69337,50.68604 1.54979,41.70138 -3.20903,-45.01142 -0.66937,-37.77594 0.35457,-17.4237 10.18523,-64.6246 1.95182,-23.83986 -5.60994,30.50073 -5.8195,63.20335 -2.96952,87.57212 2.62845,18.78264 2.8016,22.20706 3.24177,24.94605 1.15494,7.34905 0.71933,5.45348 1.56639,11.41797 -2.45937,-10.94846 -2.24363,-7.42522 -4.41992,-18.3628 -1.80713,-10.1014 -3.23485,-13.7191 -5.21405,-32.22955 -0.68491,-4.75078 -1.60173,-19.14507 -0.9676,-6.86859 -0.31893,-5.72025 -0.83581,-12.2732 -0.55476,-2.9414 -0.91326,-17.88319 0.0312,18.64106 -1.01174,2.58593 1.49212,16.05238 2.60468,35.78555 0.0569,6.83641 0.80454,13.5638 -0.66121,-8.62272 -0.37721,1.4956 0.007,3.2859 -0.20657,1.47569 1.7539,20.97657 -0.60243,-1.23388 1.05279,8.59752 1.1698,10.21478 0.70931,5.24246 2.99377,16.51578 0.53137,5.10113 4.33924,21.83923 -4.12255,-21.12729 0.22852,2.89112 -4.30003,-17.86163 7.83571,36.16736 1.84375,11.04687 1.72019,6.90754 -1.62283,-1.47481 7.17267,27.91584 -11.5907,-32.19372 16.2866,46.39665 1.44595,5.75274 -4.8321,-13.53697 4.90136,15.23152 -4.17749,-11.14941 -5.39507,-16.13691 -8.9831,-34.98337 -7.09059,-24.59926 -3.74993,-15.17479 6.12858,25.74617 0.38752,3.13087 5.46284,22.02302 -4.51731,-17.04343 1.31982,5.95508 0.42695,2.63518 -6.50811,-24.8099 -0.59716,0.58008 -11.08259,-29.97848 -10.72334,-97.47876 -9.417,-105.92578 -0.98138,8.82771 -1.6014,12.95319 -1.3017,39.75391 -1.44742,-27.29508 0.98482,-7.44717 0.13672,8.0664 -0.87791,-26.2159 -1.2196,-12.60899 -0.27754,4.71875 -0.77979,-8.69074 0.0263,8.28596 2.42578,22.44141 -3.87621,-27.85932 4.52996,27.58498 1.12604,7.81653 4.49139,25.38798 -6.36678,-42.41054 -1.88483,-10.47723 2.18654,15.11407 -2.07447,-11.50962 1.55078,10.8457 0.21526,2.77485 -2.63454,-15.92736 -0.82324,-2.82177 -2.18333,-12.96378 2.92716,19.17063 1.29342,7.0678 0.93504,7.67822 -2.36058,-10.11615 1.70268,10.77595 2.36629,10.48019 -2.43814,-7.2565 3.47168,15.38232 0.94822,3.89762 -2.42872,-6.58185 0.48535,3.99268 -2.78285,-8.7434 4.51392,15.89817 -1.76441,-7.75879 -2.56289,-2.09041 6.20639,23.21618 0.0457,4.78613 -0.27719,0.53617 5.86562,19.46894 1.05859,4.86719 0.57465,2.81483 6.95145,22.29235 0.89649,4.44653 1.50901,5.65476 3.39111,11.26554 0.66211,3.6355 2.68987,9.70301 -1.75929,-6.15935 2.15996,7.4295 -10.40549,-29.74102 10.31699,30.11721 -1.09765,-1.84766 -2.00026,-5.05281 3.23259,9.83376 0.89843,4.08985 2.13293,6.18605 -2.07641,-4.03395 0.14368,1.81837 3.43869,10.10366 2.4149,7.13726 9.07401,24.55669 8.40296,18.31895 -5.29084,-11.46368 -0.21778,0.73438 -4.75444,-10.63234 -9.59844,-22.7219 -5.89189,-12.94442 -16.72929,-42.71502 12.94062,34.84568 11.3582,26.56942 -2.83491,-3.94847 13.76184,26.40813 0.84271,3.35645 -8.11998,-15.79836 5.36547,11.57428 -2.39886,-3.69629 7.69416,15.46976 22.2191,39.08287 5.38971,10.59961 -11.12587,-19.49812 14.42309,25.29149 0.74701,1.94726 12.27747,20.39978 7.57257,13.61993 -2.17188,-2.57812 9.20924,19.91575 37.50204,57.30775 36.41016,55.64453 -7.57199,-6.48426 -35.09268,-47.9378 -23.16797,-29.25 -7.6727,-8.82237 -31.48584,-55.01956 -16.04551,-22.2419 13.56101,29.2727 34.42056,55.59331 54.32676,79.53487 13.1206,9.06134 27.1468,26.31673 38.16309,33.10058 12.91628,4.17676 24.08105,19.92082 42.62506,28.08149 17.11683,0.82639 44.01636,4.43233 55.05169,-1.86176 12.24531,-5.9015 22.11546,-14.98214 33.80469,-24.6367"
       style="fill:#e1f3fd;fill-opacity:0.20138891;fill-rule:evenodd;stroke:none" />
    <path
       id="path4141"
       d="m 561.64062,660.39453 c 34.77991,6.12938 88.13907,0.8464 109.78125,-3.92578 1.10839,0.31071 25.73777,-5.77828 6.96778,-0.94096 7.5251,-1.89434 -4.20315,1.42713 -2.2334,1.01905 0.34596,0.98534 -45.25588,9.37043 -61.75256,8.4785 -29.64489,1.00854 -59.39543,-2.04922 -88.29041,-8.7051 13.73228,4.56084 64.45058,11.15736 94.56113,8.08983 29.78337,-1.6985 59.45306,-7.04344 87.63418,-16.93358 -39.54178,13.23938 42.86383,-16.19537 19.19922,-7.27344 10.0047,-3.70978 30.10878,-13.89088 27.45313,-12.22265 17.87273,-9.46271 -10.18858,6.04115 8.03594,-3.93524 19.50652,-11.30482 4.91564,-2.60824 0.32342,0.21649 4.29607,-2.37231 18.71895,-10.80181 4.94385,-2.31397 11.12306,-6.56416 14.39156,-8.20841 13.60303,-8.19775 -11.97829,9.66085 -67.02033,35.07746 -26.10894,16.38051 C 864.66,577.06829 931.13709,452.17496 919.14843,332.30852 c 2.38053,15.41656 -3.97956,-41.8326 -10.28517,-53.78706 C 888.67395,213.03295 843.59322,155.24697 784.10158,120.97649 772.88997,115.48271 761.08332,109.8298 734.729,100.12652 705.54908,89.86914 672.22119,85.658102 645.57814,87.566338 c -9.33356,0.711063 -11.09745,1.040372 -17.1875,2.527358 3.81111,-1.73712 -74.87103,13.570674 -33.0039,6.050778 -10.17857,2.796497 21.35429,-3.951286 -6.65989,3.772499 -24.38472,8.560657 -33.06485,16.617837 -34.78873,16.879687 -22.128,10.99138 10.18759,-4.71251 -8.6217,5.07831 5.86909,-3.00696 -17.91625,11.30807 -10.65236,7.95314 -2.56336,2.123 -6.52459,5.56036 7.05466,-2.29685 0.50035,-2.23358 55.28579,-21.84018 33.62893,-12.33203 -6.62394,2.22697 21.58495,-5.32225 9.71484,-1.45313 29.68117,-5.97458 27.94456,-4.92159 48.58252,-6.06398 -14.75486,1.83677 14.12472,-0.88351 -4.39111,1.61475 13.58575,-1.65679 14.08233,0.13443 15.18951,0.2174 19.11026,2.11175 52.96018,6.49064 79.51953,18.3678 30.22015,14.2565 60.63748,31.42751 82.67377,56.97729 -13.84665,-11.64458 -24.62406,-16.6728 -21.2256,-14.88524 31.01401,24.68892 58.98465,55.88833 69.417,94.9829 -4.72541,-9.64192 5.92108,15.62092 -0.918,0.43752 7.24303,18.20073 2.49411,8.75018 6.75,21.20313 -2.78322,-8.20431 6.49975,38.10623 7.89746,36.8437 -0.64923,1.75881 -0.99958,-0.51425 -2.4914,-4.79688 -3.64125,-13.16336 -3.43725,-10.97758 -1.41021,-0.004 4.90123,17.46724 3.21455,58.81094 3.18849,56.39771 -2.50849,8.33389 0.30281,-6.82248 -2.85531,14.69586 -5.11199,21.62677 -10.4675,37.89794 -8.88393,30.21503 -5.46445,19.64003 -15.95874,44.4694 -7.77344,19.48437 -0.44372,0.1433 6.38393,-23.52082 -4.8292,1.68472 -38.22201,76.63458 -109.09005,137.96199 -193.7333,156.16685 13.49679,-1.21735 40.39047,-9.37519 13.46396,0.65786 -33.0165,13.88694 31.27477,-9.46939 45.93188,-15.52991 -25.75309,11.12025 -45.92308,23.26397 -76.07683,30.10217 -40.06133,8.66341 -82.48463,8.11374 -122.02213,-2.81606 36.02811,13.77927 75.49472,16.60201 113.57421,11.78906 -10.97136,9.94971 -59.73097,13.18661 -21.4464,13.9318 33.25887,-4.40137 26.90425,8.14043 54.27844,-0.74039 -17.22701,8.41301 -7.81853,4.46112 5.90234,4.08593 -31.15552,15.59883 -57.35377,12.48382 -96.48769,13.5997 -5.41528,2.7202 51.37568,1.39517 15.2289,3.98234 -28.18065,1.24732 -2.85998,1.83778 10.19235,3.07426 -19.10687,-0.94423 -0.3293,0.55495 1.26661,1.01977 24.36374,1.39318 -37.35809,-1.45468 -38.06739,-2.59833 -3.93081,-0.85484 -16.7136,-1.69999 -2.08203,0.46875 -23.09783,-3.49629 16.28755,3.03843 -3.0962,0.18845 12.65444,2.07822 18.18665,2.52994 11.31099,1.89355 m -36.38281,-16.44141 c -10.90535,-4.40373 -29.47684,-12.07555 -6.896,-2.68456 l 6.57178,2.63378 0.32422,0.0508 z m -1.1914,-0.18359 c -7.44835,-3.0727 -12.44811,-4.43257 0,0 z m -3.03907,-0.45703 c -11.97989,-5.37418 -8.98391,-2.08226 0,0 z m 7.9375,7.39844 c -13.83709,-7.17922 -24.17708,-0.0994 0,0 z m -24.21875,-9.14063 c -11.42573,-5.8496 -20.27015,-6.96928 0,0 z m 105.17969,-4.47265 c -14.65732,2.23381 13.15712,-0.67034 0,0 z m -22.42969,-5.79297 c -7.91493,-6.095 -26.77524,5.15798 0,0 z m -61.82422,-14.5625 c -8.62508,-3.66032 -13.70279,0.58547 0,0 z"
       style="fill:#e1f3fd;fill-opacity:0.5;fill-rule:evenodd;stroke:none" />
    <path
       id="path4143"
       d="m 559.04297,116.39844 c -20.59685,3.37145 -36.70003,15.94944 -58.29883,22.21094 -32.43904,16.46333 -64.22789,37.86805 -87.88477,67.1016 -14.0784,4.84388 -13.04271,19.12142 -22.17187,28.80078 3.45473,15.61684 -9.90733,37.09933 -17.60205,53.41064 -10.74175,15.1268 -7.09529,39.94359 -7.78559,60.38306 3.16883,20.49643 3.86371,41.07711 11.91108,61.22974 -3.50617,17.49868 16.04849,40.78327 25.71875,55.34375 6.1727,26.90006 -26.32195,-24.55831 -28.49602,-36.26318 -10.57976,-15.9143 -6.8892,-34.81235 -14.5616,-47.29236 -1.8496,-17.20948 -2.20164,-33.00057 -0.18848,-51.6515 1.06971,-21.93946 9.20948,-42.15853 10.80141,-64.33993 1.10911,-18.83191 18.37836,-30.79748 19.16267,-48.63614 14.18945,-11.61807 17.51727,-33.87771 32.05545,-40.63721 20.12887,-19.61326 43.12067,-38.89577 69.15744,-51.75342 9.97413,-5.68952 30.08771,-11.16232 36.20585,-14.19188 18.54745,-11.906734 44.55099,-11.911997 67.65423,-10.951264 15.66271,-1.444524 59.61673,9.213664 19.97858,9.951264 -18.81119,1.29433 -36.82887,6.42357 -55.65625,7.28516 M 788.60156,559.4375 c 5.97737,-6.37722 7.82905,-6.80441 0,0 z m 52.58594,-64.50391 c 18.89958,-9.94502 25.41319,-44.12524 34.08765,-65.49418 8.37217,-27.60452 13.90982,-56.28558 14.04907,-85.20504 2.36252,0.1191 1.55895,46.8314 -2.69888,65.66587 -1.29739,21.01661 -21.86172,71.79462 -21.52768,65.17788 -8.17846,14.75324 -21.07397,35.00758 -15.72266,25.44922 -14.54881,22.96996 -33.42186,42.73121 -52.66797,61.75782 0.4072,-0.43751 -55.25981,39.12341 -23.38335,13.18427 26.80058,-22.87204 50.88392,-49.49217 67.86382,-80.53584 z m -34.72266,71.66407 c 21.0178,-21.8538 43.39098,-54.57172 57.23047,-85.85547 0.82695,-2.48351 -17.55965,26.17217 -15.5332,25.49902 -9.29605,15.89437 -17.78823,23.30182 -2.12305,2.92676 -5.78799,3.51798 -33.33849,45.83438 -11.60937,13.64062 -57.1355,71.63115 -143.71714,115.37125 -232.95703,130.99219 75.47543,-2.9986 153.38136,-30.12448 204.99218,-87.20312 z"
       style="fill:#00b3e3;fill-opacity:1;fill-rule:evenodd;stroke:none" />
    <path
       id="path4145"
       d="m 300.14062,494.64062 c 15.06178,14.28968 21.31708,26.61967 31.5705,37.09308 4.91762,21.09551 29.45991,26.74788 24.33191,32.38361 20.89229,16.9234 38.91353,39.18596 66.15619,49.4491 24.80315,5.52081 58.29021,5.34626 71.74542,-16.97077 -1.87099,-6.17378 11.93455,-6.3679 6.32343,-12.34564 11.2667,-15.26117 -0.86207,-20.65681 -8.10401,-30.11328 -11.71209,-16.96171 -35.02126,-21.78105 -46.24809,-37.49548 -22.5799,-18.93712 -42.76221,-39.70303 -57.79487,-65.37171 -16.32343,-22.03975 -21.74385,-47.95562 -26.06131,-74.51195 -6.14201,-16.58223 -9.96152,-40.79895 -2.48556,-50.98413 0.96734,-17.42461 -4.9542,-44.91416 6.30078,-64.80079 4.60097,-14.12621 11.02919,-29.45339 18.42273,-43.97437 11.76479,-6.94718 11.49398,-33.05608 28.46319,-37.81031 10.84185,-14.35097 20.0709,-31.2567 39.1463,-37.94867 22.09811,-14.13916 42.68486,-32.41318 70.0918,-37.1543 30.6699,-9.945034 63.47076,-12.418088 95.46582,-15.749022 18.6101,0.250246 34.73256,7.218644 47.16358,12.972172 25.83843,5.90079 42.52811,20.42789 68.48486,24.05908 14.58545,6.96297 25.41123,17.92863 33.75684,27.34308 11.78164,7.99508 13.97137,24.70539 18.4212,23.43945 6.51029,12.15917 16.60807,14.53313 25.66388,28.93384 20.7378,26.07526 32.59319,58.59907 43.00767,89.57027 4.39715,38.50066 -2.90417,77.0523 -4.26365,115.42429 14.04271,-18.85326 1.87538,34.00258 -3.69922,44.53516 -12.27686,19.60216 -22.31616,40.96055 -32.28662,57.97559 -4.87868,9.79426 -17.21148,28.00041 -21.57666,25.31592 -7.31269,12.49922 -23.56116,19.24167 -20.03906,29.04835 23.08797,-15.94702 39.23353,-36.79977 56.07031,-57.4414 5.29336,-0.60922 8.03417,-6.46177 13.51172,-16.76953 8.96082,-21.48795 23.3438,-37.71448 17.69794,-7.2735 -12.10868,22.40319 -18.25235,39.27659 -34.78388,57.3399 -10.00382,12.77589 -24.86746,26.83083 -38.36743,33.42727 -17.723,11.13954 -28.45948,28.41155 -49.28101,34.70557 -20.17021,10.00724 -44.97006,19.8234 -64.36805,26.68963 -26.73086,8.37419 -54.8635,11.08059 -82.85729,13.58276 -32.21742,2.38644 -64.82167,-3.97438 -95.95728,-6.87249 -17.56717,-6.33877 -22.66804,-0.0553 -0.96853,3.6776 15.06826,6.10484 46.60647,13.5048 66.82449,13.78102 19.52991,1.91423 41.72301,1.41041 59.09571,-0.32821 20.4097,-5.04872 21.09965,7.25105 48.16064,-7.55762 4.60973,1.43345 31.01971,-10.36574 28.95368,-9.94079 16.56305,-7.30344 29.76912,-11.34547 43.94719,-18.27603 9.54803,-5.2635 19.85831,-9.4526 32.938,-16.95452 7.2238,-5.75223 11.62888,-7.6078 17.958,-12.40681 6.58832,-5.14579 14.24502,-8.60741 26.33594,-22.56642 7.47003,-7.94564 22.19366,-16.67856 30.36982,-34.52252 8.50803,-13.8981 4.16353,-1.20123 14.84522,-17.65326 9.56273,-6.04239 8.75293,-18.06313 16.73883,-31.916 11.71689,-10.39452 20.41155,-49.10886 25.56994,-71.16646 1.6445,-19.41237 14.11766,-33.6489 8.70685,-52.37067 -1.67837,-18.87094 6.16149,-37.04647 2.24208,-54.52471 -1.49495,-18.10491 -5.18401,-27.35559 -8.29043,-43.23163 -3.84366,-19.71372 -17.67301,-36.73136 -17.71338,-51.70069 -14.98332,-22.06536 -23.71776,-50.94433 -45.33594,-67.60156 11.091,4.98078 -15.89413,-22.35775 -13.46832,-21.22181 -5.33247,-11.4891 -28.79193,-18.21773 -35.30658,-28.623892 C 781.41877,90.764646 785.90506,89.250724 773.78143,80.628999 763.94269,71.361672 736.50866,59.051532 715.95703,50.332031 705.45801,41.935908 677.33808,38.131195 656.84472,32.241699 628.46888,22.963794 596.1051,23.84616 566.12109,27.175781 546.65128,37.710743 550.50195,13.978314 534.29542,23.993672 519.05926,31.661921 500.3619,44.9189 485.82099,37.520886 c -15.26704,1.471767 -25.90776,7.118358 -40.72333,15.432251 -8.49424,3.4048 -32.12968,22.603328 -30.56397,19.854004 0.7366,-6.54137 -8.64564,1.161487 -14.69404,5.55615 3.99184,-11.778751 14.65466,-24.149529 -1.98046,-5.710936 1.68741,-8.507867 -22.64458,25.271909 -14.01562,10.472656 -14.1478,15.016488 -26.0683,25.936969 -33.98828,34.472659 -12.77571,14.86611 -21.12719,19.03728 -29.15234,36.69384 -4.34638,-6.74988 -12.86521,20.97145 -20.20704,33.4585 0.83302,-17.36442 -15.97081,49.75311 -16.79297,28.82812 -5.94822,1.37847 -15.99621,35.98189 -17.6875,55.01563 -11.87117,41.73583 -3.47517,85.8427 2.70206,127.89046 -1.38428,24.54894 14.37561,48.98228 25.77837,71.84586 1.46668,7.62726 -6.82829,8.30085 5.41602,22.73872 0.0794,0.21805 1.5107,1.05444 0.22851,0.57183"
       style="fill:#0a1e8f;fill-opacity:1;fill-rule:evenodd;stroke:none" />
    <path
       id="path4147"
       d="m 365.72656,297.73437 c -3.0672,14.98182 -0.78991,-6.41391 0,0 z m 0.26953,41.40235 c 0.68935,-33.52554 -0.93628,-55.4081 10.3994,-82.14183 6.14438,-24.38101 37.02561,-66.54049 33.09017,-63.05816 8.32009,-12.49591 37.1318,-39.346 41.13073,-38.76339 -24.51327,19.20467 32.61845,-23.43922 23.3963,-14.06299 22.20627,-10.50262 -39.90083,30.46423 -6.80566,15.44043 -59.26731,43.6887 -92.27737,114.81776 -99.83655,186.81073 -0.30245,-0.29868 -0.0178,-6.45159 -1.37439,-4.22479 z m -1.53906,-30.89453 c 0.48497,4.34732 -2.29735,9.6789 0,0 z m 1.09375,-5.6836 -0.43359,1.84375 0.43359,-1.84375 z"
       style="fill:#00b3e3;fill-opacity:1;fill-rule:evenodd;stroke:none" />
    <path
       id="path4223"
       d="m 809.57422,487.43359 c -8.96651,13.0949 -27.26972,39.49371 -27.495,36.59528 -7.99659,11.22429 -28.15076,26.08733 -8.11686,5.95916 9.54064,-10.33629 22.44475,-27.10957 5.88774,-7.40649 -22.92592,21.77448 26.35811,-32.61455 29.13564,-47.8398 12.27233,-24.08333 17.73418,-43.57436 21.2122,-59.65464 18.6903,-66.9597 6.65156,-142.21034 -31.15497,-200.52069 5.12408,-3.52933 -42.16576,-46.08634 -23.15821,-31.93604 -5.24145,-5.70083 -21.59463,-20.03626 -5.4082,-11.48195 -17.10911,-20.18114 29.89915,10.93819 32.45615,21.89067 12.25642,16.79246 8.6249,10.80008 -1.14755,-2.87505 12.02716,11.02621 32.46057,52.84954 31.80463,49.16097 -5.9755,-12.95847 -21.49535,-36.06062 -4.99213,-10.78597 15.45189,27.02484 21.06388,47.45623 25.65839,76.81283 3.81101,18.2404 2.29238,41.7404 2.39447,48.17838 -0.87319,-22.03059 -1.37401,40.38697 -7.27934,54.69629 -8.91354,31.17369 -15.5245,47.26756 -31.6875,74.90235 7.76042,-12.25317 25.24648,-53.14796 7.36056,-16.47413 -11.86315,22.5429 -26.11417,44.11012 -43.88009,62.45459 11.14309,-12.67102 20.11535,-27.03561 28.41016,-41.67578 M 449.99941,154.13102 c 5.67811,-5.65416 -4.24242,2.92311 0,0 z m -7.80864,2.0639 2.11113,-2.51084 -2.11113,2.51084 z m -6.48238,8.66617 c 4.17136,-4.97488 -3.68304,3.22755 0,0 z m 149.83225,-48.78858 c 6.49826,0.10349 7.01389,-1.53153 0,0 z m -6.99107,-5.31599 c 28.88754,-4.76123 -24.45551,-7.59311 -31.17273,-2.52086 -45.49193,12.33738 -92.17614,37.24746 -116.225,79.43366 0.65369,9.05898 -23.15336,35.15001 -6.57994,12.20791 7.93897,-15.97382 21.03655,-23.83742 4.83581,-3.57807 5.43442,-6.26389 13.93561,-15.54808 1.34988,2.76428 -2.73779,6.44336 23.67012,-26.87119 35.49908,-32.74663 31.04553,-22.66889 47.44277,-28.26328 80.47217,-41.55168 7.60264,-4.18959 59.51671,-12.03487 32.06384,-10.52556 16.84091,-3.12689 25.61628,-4.28041 3.89569,-3.49962 l -4.1388,0.0166 z m 11.83831,-0.72673 c 3.09371,0.31959 1.53969,-1.1367 10e-6,10e-6 z m -30.39521,13.36447 c 3.00048,1.23504 9.03206,-3.19165 0,6e-5 m -88.89647,19.93039 c 4.67678,-2.32848 4.15609,-4.3327 0,0 z m -11.58031,1.00653 c 0.84239,-3.24369 -5.88337,5.86502 0,0 z m -37.7424,67.61437 c 5.39251,-5.95336 5.09051,-8.04698 0,0 z m 434.2617,114.27714 c -0.23499,-11.92126 -1.58043,-10.83547 0,0 z m -5.82422,-36.71094 0.11718,1.15234 -0.11718,-1.15234 z M 838.54689,256.4961 c 4.95707,16.03266 13.02292,32.30278 3.64356,6.66846 3.16318,4.06756 -5.25586,-12.12086 -3.64356,-6.66846 z m -9.05468,-21.03125 -1.23438,-3.5625 1.23438,3.5625 z m -9.51563,-17.93359 c 7.25021,12.10171 -2.74822,-5.65515 0,0 z m 3.69141,7.39844 -1.27735,-2.03125 1.27735,2.03125 z m -10.125,-16.16797 1.42578,2.24609 -1.42578,-2.24609 z m 9.63672,19.11719 c 0.55447,-1.61546 -4.47926,-6.27227 0,0 z m -5.2461,-10.50391 -0.64453,-0.93359 0.64453,0.93359 z m -10.5,-16.53516 c 5.21598,7.51726 -0.34622,-1.58685 0,0 z m -7.26172,-10.1289 c -6.46791,-8.37426 -0.72807,2.95889 0,0 z m 14.83594,24.38281 c 6.22063,10.83038 0.0217,-1.39813 0,0 z m -9.17578,-11.42969 c 6.7722,2.32334 -25.14772,-33.27842 -7.26764,-10.43548 -13.40942,-15.18989 5.84322,9.54065 7.26764,10.43548 z m -19.01955,-26.9922 1.04297,1.19532 -1.04297,-1.19532 z m 3.69922,4.96485 -1.92969,-1.71094 1.92969,1.71094 z m 20.28515,29.16015 c 2.47649,3.96765 2.98607,3.81946 -2e-5,0 M 801.75,204.15625 c 5.9077,7.15856 -2.08177,-3.30017 0,0 z m 36.49609,120.3125 c 3.04429,-3.57486 -2.21119,-13.93465 0,0 z m -34.9375,-113.89844 3.64063,5.35156 -3.64063,-5.35156 z m -14.90234,-19.0625 c 7.92113,8.2099 -3.49437,-4.32696 0,0 z m 0.17578,0.57031 c 3.46971,3.95103 -1.44101,-2.08326 0,0 z m 12.12891,17.88672 c -4.79999,-9.51288 -1.7299,-2.35892 0,0 z m 5.32812,10.07813 c 2.54836,0.49854 -8.76349,-12.99242 0,0 z m 7.66406,17.03906 c 9.02425,17.76629 -2.73877,-6.17014 0,0 z m -14.55859,-26.24609 c 4.86803,7.59991 1.56877,0.43836 0,0 z"
       style="fill:#e1f3fd;fill-opacity:0.45138891;fill-rule:evenodd;stroke:none" />
    <path
       id="path4149"
       d="m 360.10547,359.70312 c 0.3604,-22.81707 1.19033,-42.34114 5.83203,-62.76171 4.63272,-17.31004 -0.70563,-27.69937 6.05999,-43.37439 9.28637,5.55071 -1.64174,-13.51708 9.87165,-17.24396 8.90441,-23.16485 26.49054,-34.34704 41.05762,-52.7923 32.38613,-31.40168 70.17284,-58.1189 114.2959,-72.20654 9.94518,-11.1239 22.55754,-6.89803 35.3319,-9.6653 12.43404,5.86101 33.44554,1.89119 50.54407,4.70631 14.91269,-8.277413 34.73131,-2.60585 52.95508,4.05665 20.41384,6.41568 37.87568,17.20195 54.82129,27.44531 19.81083,11.98108 32.16374,21.63014 47.07568,38.65333 10.81831,10.81967 46.4506,55.23259 24.33448,18.99901 -10.19522,-10.50117 -25.13948,-33.28503 -4.57422,-10.39014 11.56255,13.44447 8.49198,15.8275 10.25195,15.70868 6.22548,8.78279 21.938,24.40535 14.34729,20.56519 12.31381,19.79559 -7.71026,-4.21821 10.5531,20.08502 5.04139,9.3095 8.52112,22.07866 11.14258,30.13477 4.09874,15.93948 9.87081,35.30292 9.89648,57.74414 0.39685,8.63696 0.34688,33.20254 -0.4882,44.01953 0.0505,7.46288 -1.34211,9.09559 -1.36908,15.19287 -1.98944,29.77248 -1.76847,18.9307 -9.40038,52.84619 -0.89357,-0.37617 -4.20245,13.87695 -2.42865,2.97638 3.06611,-21.95208 -10.43473,28.21241 -8.13379,14.18761 -5.72426,22.14533 -27.14637,49.50066 -35.44189,60.71729 -5.07503,4.75323 -23.46854,25.56909 -39.16108,38.17108 -7.49185,4.83819 -32.08497,23.28485 -6.68804,1.21923 12.35038,-9.68473 20.90848,-19.79459 26.61297,-25.71202 17.99238,-21.02118 -12.71165,12.78733 -15.26774,12.72843 -21.58799,23.9446 -44.88656,38.20631 -57.4557,42.67328 -22.08783,11.49528 -64.62044,22.44428 -72.2118,22.74967 -38.8866,7.31214 -13.73954,6.01409 11.82422,1.13672 12.3175,0.17754 -34.65654,9.71745 -38.62891,10.73437 16.70513,0.7865 43.973,-6.38567 41.96387,-3.96973 -7.47791,6.42019 -50.60888,9.70642 -74.92246,10.51499 -31.97724,0.2988 -1.76881,4.50542 22.38779,3.23746 24.45195,-0.03 45.99494,-4.10309 62.36768,-6.146 16.28343,-3.0394 26.35492,-8.69807 28.68585,-3.76648 22.15935,-8.36694 44.22296,-20.00617 65.47339,-32.06458 14.06028,-11.58936 10.50021,-6.35619 25.97453,-18.8093 22.61429,-17.05428 36.94468,-30.61061 52.81545,-54.18776 4.06451,-6.0741 13.34688,-17.66935 22.56037,-29.23474 7.25312,-18.12126 15.81765,-37.82798 21.84197,-51.23008 10.28851,-28.1751 11.36641,-43.83708 15.05326,-66.73193 0.70697,-21.94956 0.81133,-64.80913 -6.65869,-93.31885 -7.02071,-19.09478 -8.54541,-25.745 -9.82129,-30.70703 5.13804,2.78589 -11.20306,-20.57661 -15.03711,-31.26904 -10.78071,-19.66019 -16.22229,-35.82913 -30.77441,-49.85987 8.74768,1.91374 -25.64678,-24.29675 -17.59763,-22.27343 -16.4908,-12.30456 -18.83148,-21.73868 -35.61084,-30.8003 -13.74396,-12.914019 -33.16181,-18.70835 -45.3731,-28.076167 -16.11171,-5.275345 13.35182,1.930853 -11.03173,-5.311037 6.25009,-2.045524 -20.78893,-7.922132 -24.53272,-10.641113 -15.63871,-5.467224 -53.31614,-17.556417 -77.8501,-14.737793 -11.92444,-1.895096 -27.01075,1.515814 -54.24121,3.529297 -17.8414,4.161972 -17.63899,-0.335933 -38.89545,7.377199 -17.10782,10.925494 -10.86123,-6.727718 -32.0785,7.165478 -22.67559,13.921087 -44.39525,23.024608 -64.93669,44.214656 -6.69507,6.35972 -28.14176,25.95207 -10.71143,4.87354 3.20644,-5.27017 -22.20492,17.42624 -29.53906,28.96484 -7.87005,9.38987 -32.88587,49.44422 -40.76855,72.55851 1.49915,-8.21062 -3.15965,3.18869 -7.47984,7.94203 7.40949,-35.05068 -11.92554,35.89392 -11.18857,27.42908 -5.34057,35.32261 -11.90561,46.36404 -10.78332,77.45947 0.47021,34.33514 7.90757,67.3642 18.04456,100.5835 -15.02358,-27.03165 17.87091,46.89451 12.51562,33.85546 9.33334,19.92903 -20.40875,-31.18823 -22.21093,-42.58984 -6.83014,-16.1245 -18.55249,-60.30125 -15.90015,-43.97613 1.46714,12.26066 11.62614,48.0762 18.86987,62.21685 2.84884,7.16483 -9.88771,-16.09265 -0.0635,4.16553 8.72719,20.8482 29.03557,50.4037 47.68394,70.68908 27.89942,30.24557 62.13375,57.44062 102.09338,68.88905 9.04631,1.1435 -7.44357,-4.66154 -17.41016,-10.7227 37.2093,12.27648 -22.01509,-12.23691 -30.6361,-23.71227 -17.09662,-12.18286 -27.1911,-21.84735 -29.7986,-28.04309 -17.72297,-20.79037 -33.67694,-42.16121 -44.80748,-62.1003 -10.91446,-20.94456 -19.25504,-42.3482 -24.73138,-67.0535 -2.69609,-15.59472 -8.02037,-48.48414 -5.4483,-55.1535 2.49533,11.16413 2.62117,9.72218 4.53905,18.66797 0.18408,-3.44959 -3.34972,-48.12058 -0.26398,-38.00665 -0.38152,-14.115 0.65316,7.88963 0.26017,-13.55195 0.94664,12.89925 4.8748,-54.66445 4.73824,-20.10156 4.56955,-31.11186 7.1153,-25.73268 16.07715,-52.91211 -1.35484,11.43661 11.09128,-31.99956 11.41967,-21.78614 4.31867,-10.39371 11.01524,-26.07394 8.5066,-17.25391 5.65602,-13.06618 16.03685,-28.58331 3.61422,-3.81445 -8.01723,18.7108 -11.52068,26.34959 -3.67062,14.51605 -5.32477,17.24195 -5.83811,19.85168 3.24438,-1.92523 9.09344,-13.18601 14.66454,-25.58678 17.82032,-25.92187 14.58589,-20.2651 8.68633,-9.23105 8.17187,-2.5752 0.48682,12.16642 -19.51949,17.35441 -20.37304,38.98908 -13.02188,17.29301 -17.11325,38.15207 -24.07226,58.93768 -9.86977,23.25838 -5.5466,49.32232 -9.17969,71.17969 -1.45974,19.9113 9.90962,41.53309 6.66016,58.08203 10.66824,14.75499 13.73092,33.00108 26.9414,46.76562 11.37862,14.94493 16.88759,31.71295 33.77341,40.91406 10.27067,20.41743 30.19554,15.63085 6.61377,1.16694 -13.38448,-11.70539 -25.8698,-30.47423 -35.07471,-46.25873 -10.99828,-19.87388 -14.9954,-35.00495 -19.18731,-57.98633 -0.77524,-7.01675 -0.39586,-21.61646 -3.60937,-29.60938 m 423.8081,-187.60914 -1.05859,-1.21094 1.05859,1.21094 z M 763.625,154.63672 c -14.42089,-10.39395 -2.11305,-7.01113 0,0 z m -7.20313,-6.57813 c -11.68847,-14.31824 10.74268,2.083 0.008,-1.52343 0.70981,1.41575 5.61222,3.73908 -0.008,1.52343 z m -5.57812,-7.68359 c -14.20731,-0.39068 -25.43953,-14.56666 -38.96094,-18.05469 -15.56996,-18.93035 -46.87469,-17.71013 -68.17212,-23.421566 -30.67798,-3.498983 -27.88831,-9.559715 -14.67553,-4.816708 13.20762,-0.483349 44.13104,4.303253 31.25772,5.25 -1.51676,0.528902 16.00256,4.130804 29.27258,7.192744 -0.50907,1.8329 28.23473,8.88743 18.56873,8.53772 6.8598,0.90039 39.56748,16.17727 16.35686,9.80396 10.32341,1.75019 2.36051,5.99831 18.22766,11.45776 -13.73773,-2.87959 5.79612,1.46688 8.125,4.05078 m -136.66016,-48.136714 -0.0976,-0.02344 0.0976,0.02344 z m -0.28906,-0.07422 c -0.70909,-0.08103 1.91335,-0.205482 2e-5,0 m -0.59766,-0.152343 c -0.64991,-0.107958 1.21373,-0.106075 0,0 z m -2.3125,-0.570313 c -2.0652,-0.289667 4.97407,-0.521142 0,0 z m -6.07812,-0.9375 c -0.31731,-0.365634 1.40752,-0.0018 0,0 z m -0.0781,-0.136718 c -0.41734,-0.457255 1.72664,-0.08203 0,0 z m -0.0586,-0.09766 c -0.67568,-0.889465 3.78102,0.02317 0,0 z m -0.22656,-0.08594 c -6.77897,1.669371 1.92079,-0.856943 0,0 z m -3.05469,0.105468 c -0.96491,-1.076443 4.59192,-0.1377 0,0 z m -0.28516,-0.132812 c -13.38737,0.571226 -48.40902,8.490555 -15.89111,0.364258 21.72762,-3.841353 14.38411,-2.714384 15.89111,-0.364258 z m -58.13671,6.429688 c -9.90232,0.589918 19.4797,-7.719581 0,4e-6 z m -8.1875,2.007816 c -8.13124,4.608158 -3.84493,0.06545 -10e-6,0 z m -9.7383,2.671878 -0.24218,0.0156 0.24218,-0.0156 z m -0.67968,0.043 -0.25782,0.0117 0.25782,-0.0117 z m -0.38672,0.0156 c 3.15183,-3.848192 2.35946,-0.75799 0,9e-5 m -2.08985,-0.004 c -2.36345,0.18847 5.23893,-2.177497 0,2e-5 m -0.53906,-0.0156 c -2.7231,0.28255 4.80229,-2.230663 0,0 z m -15.16797,3.71094 c -14.57966,12.97399 -39.8694,17.86126 -56.4876,31.43299 -10.19088,8.97492 -40.79665,31.56286 -19.18267,13.50757 10.706,-10.43656 48.9437,-37.31716 45.11945,-30.55389 -10.51523,9.28596 18.95475,-10.12166 30.55078,-14.38671 m -86.76562,54.72656 -0.12891,0.0781 0.12891,-0.0781 z m -0.50391,0.30078 c -2.7875,5.33638 -30.43259,35.84524 -19.43445,18.7951 2.45797,-4.88395 36.19912,-48.70426 34.88025,-42.32732 -6.19622,8.20565 -9.69947,12.9124 -15.4458,23.53222 z M 371.8437,281.21876 c 7.49682,-6.26478 12.11935,-15.4592 16.25,-24.71094 1.8088,-0.37222 3.7187,-13.45149 3.68359,-18.80469 9.14975,-0.7774 7.35324,-10.96985 12.39844,-16.49218 6.75168,-5.99968 15.56905,-13.82944 11.31464,-20.91144 10.10431,-3.15227 22.33794,-15.31497 31.72052,-24.05341 15.4567,-16.66856 31.9154,-21.9657 52.09033,-34.03369 15.91205,-13.14828 23.58175,-8.66767 45.24951,-12.49365 -3.06887,-1.04648 23.06651,-10.52114 24.05078,-6.84717 21.22968,-3.95281 34.78008,-7.36168 56.73306,-1.53374 17.77063,-2.49451 28.48921,1.8777 45.70444,7.41997 10.44647,0.40291 36.34853,15.07968 12.51221,1.28174 -4.75155,-0.61972 -20.30282,-15.53149 -34.69775,-16.97412 -20.56252,-9.21253 -41.00584,-1.61714 -62.54395,-2.91891 -25.87613,8.03025 -51.95485,-1.66602 -76.55231,12.96395 -22.72962,15.78199 -48.25515,25.82534 -67.48229,45.31829 -18.86902,10.40818 -25.46098,30.55045 -40.25675,43.57064 -9.76371,11.89672 -14.29092,26.34223 -22.24872,39.33262 -3.30077,9.49367 -8.28029,20.30803 -7.92578,29.88672"
       style="fill:#0045ba;fill-opacity:1;fill-rule:evenodd;stroke:none" />
    <path
       id="path4151"
       d="m 694.34766,130.21484 c -3.60447,2.14741 -8.94326,-9.08137 0,0 z"
       style="fill:#00b3e3;fill-opacity:1;fill-rule:evenodd;stroke:none" />
    <path
       id="path4153"
       d="m 602.55469,104.23438 c 8.40506,0.61251 3.79511,-2.28213 0,0 z"
       style="fill:#00b3e3;fill-opacity:1;fill-rule:evenodd;stroke:none" />
    <path
       id="path4155"
       d="m 844.11719,455.75 c 3.7293,-13.38604 4.63425,-16.17604 0,0 z"
       style="fill:#00b3e3;fill-opacity:1;fill-rule:evenodd;stroke:none" />
    <path
       id="path4157"
       d="m 782.125,553.01562 c -14.38962,12.66622 -13.36558,13.66523 0,0 z"
       style="fill:#00b3e3;fill-opacity:1;fill-rule:evenodd;stroke:none" />
    <path
       id="path4159"
       d="m 740.55078,583.42187 c -4.59337,1.4341 -12.03756,8.35167 0,0 z"
       style="fill:#00b3e3;fill-opacity:1;fill-rule:evenodd;stroke:none" />
    <path
       id="path4161"
       d="m 713.92578,599.82812 c 3.88166,-3.45041 -20.65102,10.31697 0,0 z"
       style="fill:#00b3e3;fill-opacity:1;fill-rule:evenodd;stroke:none" />
    <path
       id="path4163"
       d="m 678.57031,611.54297 c -2.29966,-0.21137 -11.36428,4.1619 0,0 z"
       style="fill:#00b3e3;fill-opacity:1;fill-rule:evenodd;stroke:none" />
    <path
       id="path4165"
       d="m 675.00391,614.25781 c 3.89234,-2.59871 -20.01224,7.19606 0,0 z"
       style="fill:#00b3e3;fill-opacity:1;fill-rule:evenodd;stroke:none" />
    <path
       id="path4167"
       d="m 659.05859,115.98438 c 9.52402,7.11914 2.72422,-1.70311 0,0 z"
       style="fill:#00b3e3;fill-opacity:1;fill-rule:evenodd;stroke:none" />
    <path
       id="path4169"
       d="m 673.94922,116.57813 c 8.47807,5.56879 0.32673,-2.05019 0,0 z"
       style="fill:#00b3e3;fill-opacity:1;fill-rule:evenodd;stroke:none" />
    <path
       id="path4171"
       d="m 653.90625,112.40234 c 3.59029,5.02558 3.75437,-0.3028 0,0 z"
       style="fill:#00b3e3;fill-opacity:1;fill-rule:evenodd;stroke:none" />
    <path
       id="path4173"
       d="m 654.01562,107.58984 c 15.35979,6.57455 5.75321,0.64924 0,0 z"
       style="fill:#00b3e3;fill-opacity:1;fill-rule:evenodd;stroke:none" />
    <path
       id="path4175"
       d="m 660.07812,107.41016 c 1.38542,0.54297 1.38542,0.54297 0,0 z"
       style="fill:#00b3e3;fill-opacity:1;fill-rule:evenodd;stroke:none" />
    <path
       id="path4177"
       d="m 642.39453,104.41016 c 14.88776,6.23903 6.7948,-0.60615 0,0 z"
       style="fill:#00b3e3;fill-opacity:1;fill-rule:evenodd;stroke:none" />
    <path
       id="path4179"
       d="m 605.16016,103.89844 c 14.34554,-1.59016 34.10573,3.74175 25.15673,3.3529 24.14211,2.48407 -21.92105,-6.59257 -25.15673,-3.3529 z"
       style="fill:#00b3e3;fill-opacity:1;fill-rule:evenodd;stroke:none" />
    <path
       id="path4181"
       d="m 627.54687,98.652344 c 0.78607,2.768686 22.71696,2.873436 0,0 z"
       style="fill:#00b3e3;fill-opacity:1;fill-rule:evenodd;stroke:none" />
    <path
       id="path4183"
       d="m 590.98437,104.20313 c 12.39016,-0.0153 0.73267,-1.86168 0,0 z"
       style="fill:#00b3e3;fill-opacity:1;fill-rule:evenodd;stroke:none" />
    <path
       id="path4185"
       d="m 580.80469,101.03125 c 14.04809,-0.80832 9.64951,-2.817626 0,0 z"
       style="fill:#00b3e3;fill-opacity:1;fill-rule:evenodd;stroke:none" />
    <path
       id="path4187"
       d="m 571.1875,103.88281 c 13.45955,-0.13294 2.02447,-2.19393 0,0 z"
       style="fill:#00b3e3;fill-opacity:1;fill-rule:evenodd;stroke:none" />
    <path
       id="path4189"
       d="m 577.80078,100.30078 c 11.61544,-0.558626 9.01138,-2.132423 0,0 z"
       style="fill:#00b3e3;fill-opacity:1;fill-rule:evenodd;stroke:none" />
    <path
       id="path4191"
       d="m 832.44922,270.19922 c -3.80745,-7.36461 6.46207,16.54459 0,0 z"
       style="fill:#00b3e3;fill-opacity:1;fill-rule:evenodd;stroke:none" />
    <path
       id="path4193"
       d="m 843.375,320.51953 c 1.23978,8.86998 2.44677,10.34492 0,0 z"
       style="fill:#00b3e3;fill-opacity:1;fill-rule:evenodd;stroke:none" />
    <path
       id="path4195"
       d="m 844.15625,398.81641 c 1.25276,-11.97408 -0.28105,-8.69401 0,0 z"
       style="fill:#00b3e3;fill-opacity:1;fill-rule:evenodd;stroke:none" />
    <path
       id="path4197"
       d="m 840.83984,392.42187 c -1.95653,7.45213 0.49238,4.93605 0,0 z"
       style="fill:#00b3e3;fill-opacity:1;fill-rule:evenodd;stroke:none" />
    <path
       id="path4199"
       d="m 839.89062,413.27734 c -1.27744,0.24185 -1.43837,11.85876 0,0 z"
       style="fill:#00b3e3;fill-opacity:1;fill-rule:evenodd;stroke:none" />
    <path
       id="path4201"
       d="m 829.70703,449.86719 c -4.94707,12.5261 -1.8095,7.88103 0,0 z"
       style="fill:#00b3e3;fill-opacity:1;fill-rule:evenodd;stroke:none" />
    <path
       id="path4203"
       d="m 822.05469,473.33984 c -1.02647,-0.99385 -4.28501,11.04071 0,0 z"
       style="fill:#00b3e3;fill-opacity:1;fill-rule:evenodd;stroke:none" />
    <path
       id="path4205"
       d="m 672.19141,609.875 c 19.69942,-2.63067 76.48057,-39.71961 66.14797,-33.9626 -18.21649,14.01575 -56.71485,27.80715 -66.14797,33.9626 z"
       style="fill:#00b3e3;fill-opacity:1;fill-rule:evenodd;stroke:none" />
    <path
       id="path4207"
       d="m 611.62109,97.582031 c 8.80165,2.361159 5.07369,-0.623482 0,0 z"
       style="fill:#00b3e3;fill-opacity:1;fill-rule:evenodd;stroke:none" />
    <path
       id="path4209"
       d="m 605.17187,92.78125 c 8.47219,2.525338 5.83248,-0.392103 0,0 z"
       style="fill:#00b3e3;fill-opacity:1;fill-rule:evenodd;stroke:none" />
    <path
       id="path4211"
       d="m 687.04297,125.59766 c 4.47497,4.23275 8.37058,4.59759 0,0 z"
       style="fill:#00b3e3;fill-opacity:1;fill-rule:evenodd;stroke:none" />
    <path
       id="path4213"
       d="m 708.53125,131.58203 c -5.43303,-1.86747 16.45632,12.36069 0,0 z"
       style="fill:#00b3e3;fill-opacity:1;fill-rule:evenodd;stroke:none" />
    <path
       id="path4215"
       d="m 834.89844,287.38672 c 0.68063,-2.06955 -6.37562,-16.80553 0,0 z"
       style="fill:#00b3e3;fill-opacity:1;fill-rule:evenodd;stroke:none" />
    <path
       id="path4217"
       d="m 618.80469,92.546875 c 15.8429,3.021053 49.43802,12.276985 15.8712,4.369691 -11.21116,-2.619167 33.07269,8.904914 43.41573,13.065034 48.95654,16.48103 90.49387,50.37958 121.12322,91.48324 -18.82171,-23.18565 -59.73605,-55.24381 -75.03633,-61.19125 44.75927,36.20164 83.58718,81.79992 105.75118,135.3436 3.80514,-5.80743 16.6619,41.99896 8.53906,18.55859 12.27981,39.30545 18.9565,80.78926 15.57812,122 C 882.2062,281.39412 793.84013,130.81511 659.26893,96.359456 646.01747,93.383876 632.38608,91.953114 618.80469,92.546875 Z"
       style="fill:#00b3e3;fill-opacity:1;fill-rule:evenodd;stroke:none" />
    <path
       id="path4219"
       d="m 849.98828,434.08203 c 0.60417,-14.15309 1.26182,-42.05298 0.58565,-40.71265 0.0776,-17.26322 -4.61771,-58.53698 -3.3626,-19.81988 -2.15432,90.0547 -54.5614,178.42025 -135.25431,219.71222 0.11942,2.64315 -37.67558,18.07119 -52.94151,21.43698 -23.63773,6.46933 -61.85896,4.36736 -76.27724,9.33692 24.63483,1.36661 55.31022,-3.6808 75.68359,-7.52397 36.78974,-8.69764 71.83488,-24.90427 102.12891,-47.55459 -31.16625,25.99414 31.31575,-24.56579 26.97652,-23.29687 20.84018,-21.81152 33.06287,-38.37391 46.31645,-65.41015 5.48532,-15.35026 12.06095,-30.34746 16.14453,-46.16797"
       style="fill:#00b3e3;fill-opacity:1;fill-rule:evenodd;stroke:none" />
    <path
       id="path4221"
       d="m 687.48437,129.42187 c -4.063,-0.95495 -3.45462,-4.477 0,0 z"
       style="fill:#00b3e3;fill-opacity:1;fill-rule:evenodd;stroke:none" />
    <path
       id="path4225"
       d="m 815.96094,438.01562 c 0.54388,-3.85165 3.87837,-3.5687 0,0 z M 661.95312,107.04688 c -23.59758,-6.2107 -55.16489,-9.064962 -82.41345,-6.32263 12.81681,-0.46961 29.65605,0.30412 36.50964,2.07802 -30.85376,-2.72032 45.74957,6.23534 4.90772,1.67042 68.81058,11.71724 130.00714,53.30776 173.29688,107.12109 C 767.73659,159.56225 719.25898,119.97687 661.95312,107.04691 M 610.57031,83.574219 c 12.69299,0.480358 32.53628,8.709359 35.18633,9.624819 16.75252,0.252677 61.35235,23.885332 21.96642,10.811692 -80.90859,-28.518475 -186.00997,3.89864 -237.15275,57.75489 -13.79003,14.23475 -41.2227,43.67075 -42.81621,63.67186 -8.26305,14.14237 -28.85384,68.16527 -14.97037,26.60176 9.99447,-26.53453 21.54829,-49.56177 37.13498,-70.84889 17.38327,-26.25009 57.80012,-57.09813 52.15376,-53.56083 23.08741,-16.09711 45.44578,-26.83077 68.58396,-34.754552 25.7236,-8.6824 53.01474,-9.621338 79.91406,-9.300781 M 850.45312,383.98437 c 1.2998,-10.60494 3.03014,-47.72943 0.8169,-19.30126 -1.59771,23.35978 1.11696,-28.68304 0.0966,-38.29237 -1.09654,-48.13961 -19.75273,-94.50446 -47.84708,-133.15637 15.4176,23.1784 32.60699,68.48032 33.66121,83.74466 -19.81016,-49.86941 -49.63012,-97.06416 -91.14168,-131.62747 12.35318,7.61771 54.22153,36.41951 25.27686,7.6084 -9.05278,-4.17105 -2.20516,-2.7804 3.25195,5.92529 10.51099,8.24206 -26.30857,-21.21441 -3.63037,0.36475 C 758.09484,147.49008 716.80649,121.27005 731.89062,132.60547 700.08741,111.03309 666.26376,90.883691 627.62891,84.925781 757.34698,97.374245 869.00184,221.85032 857.62377,353.31957 c -1.27263,10.43924 -3.60673,20.76424 -7.17065,30.6648 z M 736.94141,137.66797 c 2.02632,-0.0479 13.192,10.33579 0,0 z m 95.54296,138.05078 c 0.15676,5.34494 -6.44907,-18.07562 0,0 z m 6.54297,19.32422 c -2.52938,-5.14588 -1.77522,-8.72681 0,0 z m 7.25391,83.21875 c 0.0989,-8.23764 1.96749,-5.07909 0,0 z m 2.12109,10.94531 c 0.33191,-8.48668 1.96491,-4.34451 0,0 z M 599.87109,110.24219 c -31.4195,-10.13191 -74.53453,5.02389 -106.9654,17.7541 -35.81392,17.63701 33.89506,-21.9879 49.50883,-21.64009 25.33917,-7.400018 43.58478,-4.4863 59.53958,-3.85765 -1.09081,-0.25084 52.58381,7.25208 61.39959,14.1846 13.85853,4.66032 40.24612,20.47274 9.69722,7.10401 -23.46816,-8.28945 -48.20377,-13.66131 -73.17982,-13.54498 z m -195.03125,82.84764 c 7.80323,-16.80261 56.54425,-57.05866 48.56055,-49.45915 -17.52404,12.3299 -40.45716,42.75877 -48.56055,49.45915 z M 567.88672,97.554688 c 4.22939,1.283041 -13.50089,0.222608 0,0 z M 590.90234,97.25 c -12.5234,0.923137 -7.51337,-0.567102 0,0 z m 35.38282,1.082031 c -0.56758,1.06779 -10.94968,-2.016311 0,0 z m 18.82812,4.933599 c -7.18081,-0.33166 -4.2553,-1.79562 0,0 z m -4.77344,-4.722661 c 11.00054,2.199861 7.65982,2.656901 0,0 z m 21.95703,22.996091 -6.26953,-1.95703 6.26953,1.95703 z m 47.50782,16.4375 c -7.55053,-3.55945 -8.52904,-5.04231 0,0 z m 41.7539,6.63281 c 5.4976,5.42992 -12.93314,-10.34403 0,0 z m 83.54688,188.1211 c 1.45716,10.72964 2.71699,8.19971 0,0 z m -3.85938,-5.85156 c 1.22005,12.4835 2.19306,1.70354 0,0 z m 3.42578,8.70312 c 1.88783,12.9669 3.39622,8.73497 0,0 z m -2.12109,9.70703 c 1.01668,11.50273 1.79504,0.52642 0,0 z m 8.11719,33.50391 c -2.50401,0.93321 -0.8324,21.33016 -5e-5,0 m -6.6836,-20.36719 c 2.72538,13.23039 -0.77717,31.94308 -1.07555,23.63299 -1.77425,27.26469 6.95001,-39.01421 2.00552,-16.40148 l -0.92999,-7.23151 m 2.53907,34.62109 c -3.50495,14.85106 1.40753,2.29985 0,0 z m -1.35157,16.66016 -1.17578,3.99219 1.17578,-3.99219 z m -0.65625,-5.61328 c -4.88147,14.80316 -0.12259,5.3856 0,0 z m -4.48046,0.28906 c -4.41857,3.66037 0.64356,3.55234 0,0 z m -2.25,18.94922 c -4.48257,8.32452 1.92196,0.14775 0,0 z m -0.65625,-13.875 c -5.58052,9.21543 1.45783,2.71132 0,0 z M 401.71875,189.37109 c 3.3934,-2.75025 -11.95101,15.81381 0,0 z m 3.40625,-2.42187 c 3.07802,-2.37388 -12.90343,16.76391 0,0 z m 20.22266,-28.22266 c 4.14763,-2.4892 -14.90222,15.51842 0,0 z m 21.98437,-19.14453 c -2.55696,3.69787 -10.77047,8.3969 0,0 z m 38.58203,-28.57422 c -15.2592,9.29673 -15.86576,8.10727 0,0 z m 103.7461,-28.210935 c 12.94681,0.388453 15.67763,0.356523 0,0 z M 834.34375,421.92187 c 1.79228,-7.65477 3.07374,-2.74705 0,0 z m -18.56641,22.53516 c -2.28892,-3.18709 7.71336,-9.04261 0,0 z"
       style="fill:#00b3e3;fill-opacity:1;fill-rule:evenodd;stroke:none" />
  </g>
</svg>
